<svg width="38" height="38" viewBox="0 0 38 38" fill="none" xmlns="http://www.w3.org/2000/svg">
<path d="M17.5705 1.49507C18.0138 0.101174 19.9862 0.101172 20.4295 1.49507L23.8314 12.1927C24.0294 12.8153 24.6075 13.2381 25.2608 13.2381H36.3371C37.7824 13.2381 38.3917 15.0811 37.2312 15.9425L28.2152 22.6354C27.7007 23.0173 27.4856 23.6838 27.6798 24.2944L31.1104 35.0824C31.5517 36.4701 29.9561 37.6093 28.7869 36.7414L19.8941 30.1399C19.3632 29.7458 18.6368 29.7458 18.1059 30.1399L9.21309 36.7414C8.0439 37.6093 6.44827 36.4701 6.88955 35.0824L10.3202 24.2944C10.5144 23.6838 10.2993 23.0173 9.78482 22.6354L0.768809 15.9425C-0.391654 15.0811 0.217631 13.2381 1.66289 13.2381H12.7392C13.3925 13.2381 13.9706 12.8153 14.1686 12.1927L17.5705 1.49507Z" fill="#FFE600"/>
</svg>
